<svg xmlns="http://www.w3.org/2000/svg" xmlns:xlink="http://www.w3.org/1999/xlink" version="1.1" viewBox="0 0 100 97" xml:space="preserve">
<defs>

<style type="text/css">
		@import url(http://fonts.googleapis.com/css?family=Open+Sans:100,100i,200,200i,300,300i,400,400i,500,500i,600,600i,700,700i,800,800i,900,900i)
</style>

<style type="text/css">
		@import url(http://fonts.googleapis.com/css?family=Open+Sans:100,100i,200,200i,300,300i,400,400i,500,500i,600,600i,700,700i,800,800i,900,900i)
</style>
            
</defs>
<rect x="0" y="0" width="100%" height="100%" fill="#ffffff"></rect>
<g transform="matrix(1 0 0 1 50 48.5)"  >
<g style=""   >
		<g transform="matrix(0.2 0 0 0.2 -1.12 0)"  >
<filter id="SVGID_6643" y="-20%" height="140%" x="-20%" width="140%" >
	<feGaussianBlur in="SourceAlpha" stdDeviation="0"></feGaussianBlur>
	<feOffset dx="0" dy="0" result="oBlur" ></feOffset>
	<feFlood flood-color="rgb(0,0,0)" flood-opacity="1"/>
	<feComposite in2="oBlur" operator="in" />
	<feMerge>
		<feMergeNode></feMergeNode>
		<feMergeNode in="SourceGraphic"></feMergeNode>
	</feMerge>
</filter>
<g style="filter: url(#SVGID_6643);"   >
		<g transform="matrix(1 0 0 1 -0.05 -0.04)" id="Layer_1"  >
<linearGradient id="SVGID_SVGID_1__1" gradientUnits="userSpaceOnUse" gradientTransform="matrix(1 0 0 1 0 0)"  x1="405.6091" y1="405.9101" x2="89.4543" y2="89.7552">
<stop offset="0%" style="stop-color:#A635B7;stop-opacity: 1"/>
<stop offset="39.58%" style="stop-color:#D25AB6;stop-opacity: 1"/>
<stop offset="75.24%" style="stop-color:#F376B4;stop-opacity: 1"/>
<stop offset="94.75%" style="stop-color:#FF80B4;stop-opacity: 1"/>
</linearGradient>
<path style="stroke: none; stroke-width: 1; stroke-dasharray: none; stroke-linecap: butt; stroke-dashoffset: 0; stroke-linejoin: miter; stroke-miterlimit: 4; fill: url(#SVGID_SVGID_1__1); fill-rule: nonzero; opacity: 1;"  transform=" translate(-255.95, -255.96)" d="M 166.7 253.1 l -1.7 -0.5 l 105.3 105.3 c -13 13 -34 13 -47 0 l -48.9 -48.9 c -48.2 -48.2 -126.3 -48.2 -174.5 0 l 147.9 147.9 c 54.7 54.7 143.3 54.7 198 0 c 54.7 -54.7 54.7 -143.3 0 -198 L 241.6 154.7 c 13 -13 34 -13 47 0 l 48.9 48.9 c 48.2 48.2 126.3 48.2 174.5 0 l 0 0 L 353.2 44.7 c -55 -44.1 -135.5 -40.7 -186.5 10.3 C 112.1 109.7 112.1 198.4 166.7 253.1 z" stroke-linecap="round" />
</g>
		<g transform="matrix(1 0 0 1 104.83 -129.12)" id="Layer_1"  >
<linearGradient id="SVGID_SVGID_2__2" gradientUnits="userSpaceOnUse" gradientTransform="matrix(0.71 0.71 -0.71 0.71 986.77 128)"  x1="-631.4268" y1="467.4489" x2="-220.6013" y2="467.4489">
<stop offset="0%" style="stop-color:#A635B7;stop-opacity: 1"/>
<stop offset="34.89%" style="stop-color:#D25AB6;stop-opacity: 1"/>
<stop offset="66.33%" style="stop-color:#F376B4;stop-opacity: 1"/>
<stop offset="83.53%" style="stop-color:#FF80B4;stop-opacity: 1"/>
</linearGradient>
<path style="stroke: none; stroke-width: 1; stroke-dasharray: none; stroke-linecap: butt; stroke-dashoffset: 0; stroke-linejoin: miter; stroke-miterlimit: 4; fill: url(#SVGID_SVGID_2__2); fill-rule: nonzero; opacity: 1;"  transform=" translate(-360.83, -126.88)" d="M 241.6 154.7 c 13 -13 34 -13 47 0 l 48.9 48.9 c 48.2 48.2 126.3 48.2 174.5 0 L 353.2 44.7 c -36.5 -29.3 -84.2 -37.6 -127.1 -25 C 199.9 61.9 205 118.1 241.6 154.7 z" stroke-linecap="round" />
</g>
		<g transform="matrix(1 0 0 1 -104.83 129.37)" id="Layer_1"  >
<linearGradient id="SVGID_SVGID_3__3" gradientUnits="userSpaceOnUse" gradientTransform="matrix(0.71 0.71 -0.71 0.71 986.77 128)"  x1="-631.4274" y1="747.4825" x2="-220.5987" y2="747.4825">
<stop offset="0%" style="stop-color:#A635B7;stop-opacity: 1"/>
<stop offset="39.24%" style="stop-color:#D25AB6;stop-opacity: 1"/>
<stop offset="74.59%" style="stop-color:#F376B4;stop-opacity: 1"/>
<stop offset="93.94%" style="stop-color:#FF80B4;stop-opacity: 1"/>
</linearGradient>
<path style="stroke: none; stroke-width: 1; stroke-dasharray: none; stroke-linecap: butt; stroke-dashoffset: 0; stroke-linejoin: miter; stroke-miterlimit: 4; fill: url(#SVGID_SVGID_3__3); fill-rule: nonzero; opacity: 1;"  transform=" translate(-151.17, -385.37)" d="M 270.4 357.9 c -13 13 -34 13 -47 0 l -48.9 -48.9 c -48.2 -48.2 -126.3 -48.2 -174.5 0 l 147.9 147.9 c 37.5 37.5 90.8 49.2 138.3 35.4 C 312.1 450.2 306.8 394.4 270.4 357.9 z" stroke-linecap="round" />
</g>
</g>
</g>
		<g transform="matrix(1 0 0 1 50.12 0)" style="filter: url(#SVGID_6644);"  >
<filter id="SVGID_6644" y="-20%" height="140%" x="-20%" width="140%" >
	<feGaussianBlur in="SourceAlpha" stdDeviation="0"></feGaussianBlur>
	<feOffset dx="0" dy="0" result="oBlur" ></feOffset>
	<feFlood flood-color="rgb(0,0,0)" flood-opacity="1"/>
	<feComposite in2="oBlur" operator="in" />
	<feMerge>
		<feMergeNode></feMergeNode>
		<feMergeNode in="SourceGraphic"></feMergeNode>
	</feMerge>
</filter>
		<text xml:space="preserve" font-family="Open Sans" font-size="61" font-style="normal" font-weight="700" style="stroke: rgb(0,0,0); stroke-width: 0; stroke-dasharray: none; stroke-linecap: butt; stroke-dashoffset: 0; stroke-linejoin: round; stroke-miterlimit: 4; fill: rgb(0,0,0); fill-rule: nonzero; opacity: 1; white-space: pre;" paint-order="stroke"  ></text>
</g>
</g>
</g>
</svg>